<svg xmlns="http://www.w3.org/2000/svg" width="32" height="32" viewBox="0 0 32 32">
    <g fill="none" fill-rule="evenodd">
        <g fill="#FFF">
            <g>
                <g>
                    <path d="M26.5 22c.828 0 1.5.672 1.5 1.5s-.672 1.5-1.5 1.5h-21c-.828 0-1.5-.672-1.5-1.5S4.672 22 5.5 22h21zm0-7c.828 0 1.5.672 1.5 1.5s-.672 1.5-1.5 1.5h-21c-.828 0-1.5-.672-1.5-1.5S4.672 15 5.5 15h21zm0-7c.828 0 1.5.672 1.5 1.5s-.672 1.5-1.5 1.5h-21C4.672 11 4 10.328 4 9.5S4.672 8 5.5 8h21z" transform="translate(-16 -40) translate(6 4) translate(10 36)"/>
                </g>
            </g>
        </g>
    </g>
</svg>
