<svg xmlns="http://www.w3.org/2000/svg" width="20" height="22" viewBox="0 0 20 22">
    <g fill="none" fill-rule="evenodd">
        <g fill="#FFF">
            <g>
                <g>
                    <path d="M13.321 19.064c-.316 1.551-1.691 2.723-3.335 2.723s-3.02-1.172-3.335-2.723zM9.986 0c.5 0 .908.406.908.908v.98c3.073.443 5.446 3.088 5.446 6.282v2.531c0 1.797.787 3.492 2.16 4.653.361.31.564.749.564 1.213 0 .876-.713 1.59-1.589 1.59H2.497c-.877 0-1.59-.714-1.59-1.59 0-.464.203-.904.556-1.206 1.381-1.168 2.168-2.863 2.168-4.66v-2.53c0-3.195 2.372-5.84 5.447-6.283v-.98c0-.502.407-.908.908-.908z" transform="translate(-333 -45) translate(6 4) translate(327 41)"/>
                </g>
            </g>
        </g>
    </g>
</svg>
